<mxfile host="app.diagrams.net" modified="2023-10-21T06:50:35.739Z" agent="Mozilla/5.0 (Windows NT 10.0; Win64; x64) AppleWebKit/537.36 (KHTML, like Gecko) Chrome/116.0.5845.888 YaBrowser/23.9.2.888 Yowser/2.5 Safari/537.36" etag="QUQShC7rT2kqpEunmgWl" version="22.0.6" type="device">
  <diagram id="0" name="Страница — 1">
    <mxGraphModel dx="1017" dy="617" grid="1" gridSize="10" guides="1" tooltips="1" connect="1" arrows="1" fold="1" page="1" pageScale="1" pageWidth="826" pageHeight="1169" background="#ffffff" math="0" shadow="0">
      <root>
        <mxCell id="0" />
        <mxCell id="1" parent="0" />
        <mxCell id="30" style="edgeStyle=orthogonalEdgeStyle;rounded=0;html=1;exitX=0.5;exitY=1;dashed=1;jettySize=auto;orthogonalLoop=1;" parent="1" source="2" target="20" edge="1">
          <mxGeometry relative="1" as="geometry" />
        </mxCell>
        <mxCell id="31" style="edgeStyle=orthogonalEdgeStyle;rounded=0;html=1;exitX=0.5;exitY=1;entryX=0.5;entryY=0;dashed=1;jettySize=auto;orthogonalLoop=1;" parent="1" source="2" target="18" edge="1">
          <mxGeometry relative="1" as="geometry" />
        </mxCell>
        <mxCell id="2" value="Unit 2.dfm&#xa;(Главное меню)" style="shape=component;align=center;spacingLeft=36;" parent="1" vertex="1">
          <mxGeometry x="190" y="291" width="170" height="60" as="geometry" />
        </mxCell>
        <mxCell id="mompehQKAGcnlBFKO5nk-39" style="edgeStyle=orthogonalEdgeStyle;rounded=0;orthogonalLoop=1;jettySize=auto;html=1;exitX=0.5;exitY=1;exitDx=0;exitDy=0;entryX=0.5;entryY=0;entryDx=0;entryDy=0;dashed=1;dashPattern=8 8;" edge="1" parent="1" source="3" target="2">
          <mxGeometry relative="1" as="geometry" />
        </mxCell>
        <mxCell id="3" value="Unit 1.dfm&#xa;(Заставка)" style="shape=component;align=center;spacingLeft=36;" parent="1" vertex="1">
          <mxGeometry x="190" y="212" width="170" height="60" as="geometry" />
        </mxCell>
        <mxCell id="35" style="edgeStyle=orthogonalEdgeStyle;rounded=0;html=1;exitX=0.5;exitY=0;entryX=0.101;entryY=0.513;entryPerimeter=0;dashed=1;jettySize=auto;orthogonalLoop=1;" parent="1" source="4" target="3" edge="1">
          <mxGeometry relative="1" as="geometry" />
        </mxCell>
        <mxCell id="4" value="" style="shape=cylinder;whiteSpace=wrap;html=1;rotation=90;" parent="1" vertex="1">
          <mxGeometry x="67" y="164" width="35" height="156" as="geometry" />
        </mxCell>
        <mxCell id="6" value="Заставка.Png" style="text;html=1;strokeColor=none;fillColor=none;align=center;verticalAlign=middle;whiteSpace=wrap;" parent="1" vertex="1">
          <mxGeometry x="38" y="232" width="40" height="20" as="geometry" />
        </mxCell>
        <mxCell id="36" style="edgeStyle=orthogonalEdgeStyle;rounded=0;html=1;exitX=0.5;exitY=0;entryX=0.105;entryY=0.506;entryPerimeter=0;dashed=1;jettySize=auto;orthogonalLoop=1;" parent="1" source="10" target="2" edge="1">
          <mxGeometry relative="1" as="geometry" />
        </mxCell>
        <mxCell id="10" value="" style="shape=cylinder;whiteSpace=wrap;html=1;rotation=90;" parent="1" vertex="1">
          <mxGeometry x="68" y="245" width="35" height="153" as="geometry" />
        </mxCell>
        <mxCell id="11" value="Справка.chm" style="text;html=1;strokeColor=none;fillColor=none;align=center;verticalAlign=middle;whiteSpace=wrap;" parent="1" vertex="1">
          <mxGeometry x="44" y="310" width="40" height="20" as="geometry" />
        </mxCell>
        <mxCell id="13" value="Unit 2.pas&#xa;" style="shape=component;align=center;spacingLeft=36;" parent="1" vertex="1">
          <mxGeometry x="390" y="291" width="170" height="60" as="geometry" />
        </mxCell>
        <mxCell id="14" value="Unit 1.pas&#xa;" style="shape=component;align=center;spacingLeft=36;" parent="1" vertex="1">
          <mxGeometry x="390" y="210" width="170" height="60" as="geometry" />
        </mxCell>
        <mxCell id="28" style="edgeStyle=orthogonalEdgeStyle;rounded=0;html=1;exitX=0.5;exitY=1;entryX=0.5;entryY=0;dashed=1;jettySize=auto;orthogonalLoop=1;" parent="1" source="15" target="3" edge="1">
          <mxGeometry relative="1" as="geometry" />
        </mxCell>
        <mxCell id="15" value="TwoAtTen.pdr&#xa;" style="shape=component;align=center;spacingLeft=36;" parent="1" vertex="1">
          <mxGeometry x="190" y="121" width="170" height="60" as="geometry" />
        </mxCell>
        <mxCell id="27" style="edgeStyle=orthogonalEdgeStyle;rounded=0;html=1;exitX=0.5;exitY=1;entryX=0.5;entryY=0;jettySize=auto;orthogonalLoop=1;dashed=1;" parent="1" source="16" target="15" edge="1">
          <mxGeometry relative="1" as="geometry" />
        </mxCell>
        <mxCell id="16" value="TwoAtTen.exe&#xa;(Испольняемый файл)" style="shape=component;align=center;spacingLeft=36;" parent="1" vertex="1">
          <mxGeometry x="190" y="40" width="170" height="60" as="geometry" />
        </mxCell>
        <mxCell id="34" style="edgeStyle=orthogonalEdgeStyle;rounded=0;html=1;exitX=0.5;exitY=0;dashed=1;jettySize=auto;orthogonalLoop=1;" parent="1" source="17" target="18" edge="1">
          <mxGeometry relative="1" as="geometry">
            <Array as="points" />
          </mxGeometry>
        </mxCell>
        <mxCell id="17" value="Unit 4.pas&#xa;" style="shape=component;align=center;spacingLeft=36;" parent="1" vertex="1">
          <mxGeometry x="400" y="537" width="170" height="60" as="geometry" />
        </mxCell>
        <mxCell id="18" value="Unit4.dfm&#xa;(Игра)" style="shape=component;align=center;spacingLeft=36;" parent="1" vertex="1">
          <mxGeometry x="400" y="430" width="170" height="60" as="geometry" />
        </mxCell>
        <mxCell id="20" value="Unit3.dfm&#xa;(Правила игры)" style="shape=component;align=center;spacingLeft=36;" parent="1" vertex="1">
          <mxGeometry x="190" y="430" width="170" height="60" as="geometry" />
        </mxCell>
        <mxCell id="37" style="edgeStyle=orthogonalEdgeStyle;rounded=0;html=1;exitX=0.5;exitY=0;entryX=0.088;entryY=0.51;entryPerimeter=0;dashed=1;jettySize=auto;orthogonalLoop=1;" parent="1" source="21" target="20" edge="1">
          <mxGeometry relative="1" as="geometry" />
        </mxCell>
        <mxCell id="21" value="" style="shape=cylinder;whiteSpace=wrap;html=1;rotation=90;" parent="1" vertex="1">
          <mxGeometry x="66" y="383" width="35" height="154" as="geometry" />
        </mxCell>
        <mxCell id="22" value="Правила игры.htm" style="text;html=1;strokeColor=none;fillColor=none;align=center;verticalAlign=middle;whiteSpace=wrap;" parent="1" vertex="1">
          <mxGeometry x="38" y="450" width="40" height="20" as="geometry" />
        </mxCell>
        <mxCell id="33" style="edgeStyle=orthogonalEdgeStyle;rounded=0;html=1;exitX=0.5;exitY=0;dashed=1;jettySize=auto;orthogonalLoop=1;" parent="1" source="24" target="20" edge="1">
          <mxGeometry relative="1" as="geometry" />
        </mxCell>
        <mxCell id="24" value="Unit 3.pas&#xa;" style="shape=component;align=center;spacingLeft=36;" parent="1" vertex="1">
          <mxGeometry x="190" y="537" width="170" height="60" as="geometry" />
        </mxCell>
        <mxCell id="38" style="edgeStyle=orthogonalEdgeStyle;rounded=0;html=1;exitX=0.092;exitY=0.522;entryX=1;entryY=0.5;dashed=1;jettySize=auto;orthogonalLoop=1;exitPerimeter=0;" parent="1" source="14" target="3" edge="1">
          <mxGeometry x="367.57142857142856" y="188.80952380952374" as="geometry">
            <mxPoint x="367.57142857142856" y="188.80952380952374" as="sourcePoint" />
            <mxPoint x="412.33333333333326" y="189.7619047619047" as="targetPoint" />
            <Array as="points">
              <mxPoint x="390" y="242" />
              <mxPoint x="390" y="242" />
            </Array>
          </mxGeometry>
        </mxCell>
        <mxCell id="39" style="edgeStyle=orthogonalEdgeStyle;rounded=0;html=1;exitX=0.092;exitY=0.522;entryX=1;entryY=0.5;dashed=1;jettySize=auto;orthogonalLoop=1;exitPerimeter=0;" parent="1" edge="1">
          <mxGeometry x="367.57142857142856" y="266.80952380952374" as="geometry">
            <mxPoint x="405.42857142857133" y="319.33333333333326" as="sourcePoint" />
            <mxPoint x="360.19047619047615" y="319.80952380952374" as="targetPoint" />
            <Array as="points">
              <mxPoint x="390" y="320" />
              <mxPoint x="390" y="320" />
            </Array>
          </mxGeometry>
        </mxCell>
      </root>
    </mxGraphModel>
  </diagram>
</mxfile>
